<svg width="20" height="20" viewBox="0 0 20 20" fill="none" xmlns="http://www.w3.org/2000/svg">
<path d="M10 0C7.34811 0 4.80457 1.05358 2.92846 2.92846C1.05346 4.80434 0 7.34811 0 10C0 12.6519 1.05358 15.1954 2.92846 17.0715C4.80434 18.9465 7.34811 20 10 20C12.6519 20 15.1954 18.9464 17.0715 17.0715C18.9465 15.1957 20 12.6519 20 10C19.9973 7.34903 18.9429 4.80709 17.0679 2.93211C15.1929 1.05714 12.651 0.00274286 10 0ZM10.7143 9.28571C10.7116 10.0741 10.0741 10.7116 9.28571 10.7143H4.28571C3.89106 10.7143 3.57143 10.3947 3.57143 10C3.57143 9.60535 3.89106 9.28571 4.28571 9.28571H9.28571V3.57143C9.28571 3.17678 9.60535 2.85714 10 2.85714C10.3947 2.85714 10.7143 3.17678 10.7143 3.57143V9.28571Z" fill="#F8AD1F"/>
</svg>
